# xmcd CD database file
#
# Track frame offsets:
#	150
#	17100
#	33957
#	51410
#	67182
#	82897
#	103072
#	123155
#	141502
#	157797
#	191727
#
# Disc length: 2837 seconds
#
# Revision: 5
# Processed by: cddbd v1.5.2PL0 Copyright (c) Steve Scherf et al.
# Submitted via: CDex 1.51
#
DISCID=940b130b
DTITLE=Roachford - Feel
DYEAR=1997
DGENRE=Rock
TTITLE0=The Way I Feel
TTITLE1=How Could I (Insecurity)
TTITLE2=Don't Make Me Love You
TTITLE3=Someday
TTITLE4=Naked Without You
TTITLE5=Nothing Free
TTITLE6=Move On
TTITLE7=Down
TTITLE8=Testify
TTITLE9=Time
TTITLE10=The Flow
EXTD=YEAR: 1997
EXTT0=
EXTT1=
EXTT2=
EXTT3=
EXTT4=
EXTT5=
EXTT6=
EXTT7=
EXTT8=
EXTT9=
EXTT10=
PLAYORDER=
